<svg width="119" height="29" viewBox="0 0 119 29" fill="none" xmlns="http://www.w3.org/2000/svg">
<g clip-path="url(#clip0_ACCESSClip)">
<path d="M35.7546 10.6789C36.0975 9.64191 36.4225 8.66191 36.7405 7.69021C36.7797 7.57157 36.8592 7.54428 36.9624 7.5253C38.6792 7.20496 40.4031 6.93207 42.1566 7.01868C43.3941 7.07682 44.5841 7.32953 45.6495 7.99394C47.0946 8.89326 47.7554 10.2482 47.8491 11.9092C47.9037 12.8643 47.7483 13.8075 47.6119 14.7424C47.3283 16.6478 47.0364 18.5509 46.7624 20.4563C46.7549 20.5362 46.726 20.6126 46.6789 20.6775C46.6317 20.7425 46.5679 20.7935 46.4942 20.8253C45.3766 21.4387 44.1641 21.7744 42.9183 21.9785C41.3766 22.2456 39.8041 22.2856 38.2508 22.0972C36.9564 21.9346 35.7498 21.5324 34.8102 20.5809C34.4024 20.1633 34.0858 19.6656 33.8806 19.1192C33.6753 18.5729 33.5859 17.9898 33.6179 17.4071C33.6499 16.8243 33.8027 16.2545 34.0666 15.7339C34.3304 15.2134 34.6996 14.7533 35.1507 14.3829C36.1141 13.5904 37.2531 13.1965 38.4525 12.9414C40.269 12.557 42.102 12.6092 43.9363 12.7492C44.1653 12.7658 44.2151 12.6958 44.2258 12.4917C44.3076 11.0609 43.4486 10.0334 41.9407 9.75699C40.8942 9.56479 39.8668 9.73089 38.8393 9.89936C37.791 10.0719 36.759 10.3326 35.7546 10.6789ZM42.1708 14.9951C41.5179 14.9909 40.8656 15.0389 40.2203 15.1387C39.5227 15.2573 38.8453 15.4412 38.2829 15.9039C37.647 16.4272 37.4773 17.1295 37.6031 17.9031C37.7217 18.609 38.2153 18.9958 38.8547 19.2236C39.1479 19.3267 39.4528 19.3925 39.7624 19.4194C40.9061 19.5297 42.0166 19.3304 43.12 19.0575C43.1948 19.0476 43.2635 19.0107 43.3129 18.9536C43.3623 18.8965 43.3891 18.8233 43.3881 18.7478C43.5388 17.6267 43.6883 16.5043 43.8544 15.3855C43.8829 15.1921 43.8188 15.1553 43.6575 15.1244C43.166 15.0433 42.669 15.0001 42.1708 14.9951Z" fill="#114185"/>
<path d="M88.722 18.4929C88.5322 19.0695 88.3661 19.5856 88.1905 20.1017C88.0505 20.5252 87.901 20.9452 87.7681 21.3724C87.7554 21.4377 87.7236 21.4979 87.6767 21.5452C87.6298 21.5925 87.57 21.6248 87.5047 21.6381C85.6895 22.1222 83.8505 22.3844 81.9759 22.1483C79.8403 21.879 78.0749 20.9618 76.9929 19.003C76.3273 17.7905 76.1161 16.47 76.2063 15.1091C76.3783 12.5203 77.4568 10.374 79.4619 8.71185C80.6803 7.701 82.1017 7.18134 83.6654 7.0271C84.7439 6.92151 85.8164 6.94167 86.8688 7.23473C89.0115 7.82795 90.44 9.49489 90.7141 11.7017C90.8719 12.97 90.7141 14.2157 90.5088 15.4627C90.4839 15.6181 90.4056 15.6229 90.2869 15.6229C89.7115 15.6229 89.1349 15.6229 88.5595 15.6229C85.7911 15.6229 83.0228 15.6229 80.2544 15.6229C80.0314 15.6229 79.9661 15.6774 79.9625 15.9064C79.9317 17.7715 80.9615 19.003 82.7946 19.3174C84.1495 19.5547 85.4676 19.3495 86.7834 19.0624C87.4414 18.9152 88.089 18.725 88.722 18.4929ZM83.8814 13.2013H86.539C87.3505 13.2013 87.3505 13.2013 87.3778 12.3898C87.4336 10.7466 86.4286 9.67524 84.7949 9.58388C82.8408 9.47354 80.9983 10.889 80.5237 12.989C80.4846 13.1634 80.5237 13.2061 80.7017 13.2049C81.7588 13.1966 82.8136 13.2013 83.8814 13.2013Z" fill="#114185"/>
<path d="M95.5443 22.1955C93.8021 22.1839 92.0729 21.8956 90.4212 21.3413C90.2563 21.2843 90.2124 21.2368 90.2717 21.0577C90.543 20.2359 90.8029 19.4101 91.0512 18.5804C91.1129 18.3763 91.1853 18.3929 91.349 18.4713C92.9354 19.2472 94.7271 19.4998 96.4661 19.1926C96.8741 19.1305 97.2613 18.9718 97.5956 18.7299C97.7503 18.6227 97.8789 18.4822 97.9721 18.3187C98.0653 18.1552 98.1206 17.9729 98.1341 17.7852C98.1475 17.5975 98.1187 17.4092 98.0497 17.2341C97.9808 17.059 97.8734 16.9016 97.7356 16.7735C97.4341 16.4943 97.0955 16.258 96.7295 16.0711C95.8219 15.5633 94.8989 15.0875 94.0363 14.499C91.7192 12.9128 92.0016 9.61091 94.2831 8.16227C95.2939 7.52041 96.4009 7.19888 97.5767 7.07668C99.5366 6.8738 101.431 7.20956 103.299 7.77193C103.47 7.82295 103.514 7.86922 103.448 8.05074C103.167 8.83024 102.895 9.61447 102.64 10.4035C102.573 10.6111 102.492 10.5957 102.332 10.5221C101.164 9.97094 99.8849 9.69495 98.5934 9.71532C97.967 9.73074 97.356 9.83396 96.8256 10.2041C96.6002 10.3479 96.4282 10.5617 96.336 10.8127C96.2439 11.0637 96.2366 11.338 96.3155 11.5935C96.4176 11.88 96.6105 12.1253 96.8648 12.2923C97.4141 12.7052 98.0429 12.984 98.6444 13.3138C99.3804 13.6981 100.083 14.1433 100.744 14.645C102.7 16.1968 102.502 19.1535 100.626 20.6555C99.4156 21.6224 97.999 22.0092 96.4922 22.1468C96.1138 22.1801 95.7377 22.186 95.5443 22.1955Z" fill="#114185"/>
<path d="M108.342 22.1957C106.623 22.1791 104.917 21.8937 103.287 21.3498C103.098 21.2869 103.049 21.2311 103.119 21.0318C103.387 20.2274 103.641 19.4183 103.888 18.6067C103.947 18.4098 104.007 18.3813 104.199 18.4739C105.779 19.2426 107.56 19.4958 109.291 19.1976C109.662 19.1393 110.018 19.007 110.336 18.8084C111.123 18.3066 111.219 17.3847 110.555 16.7393C110.276 16.4889 109.966 16.2755 109.633 16.1045C108.684 15.5659 107.698 15.0842 106.804 14.4435C104.744 12.9545 105 10.2601 106.26 8.90759C107.109 7.99759 108.182 7.50878 109.372 7.24658C110.951 6.89064 112.529 6.97607 114.106 7.26793C114.77 7.38657 115.42 7.56691 116.071 7.74251C116.286 7.80302 116.365 7.86708 116.273 8.11386C115.999 8.85776 115.75 9.60996 115.508 10.3681C115.441 10.5757 115.373 10.6054 115.169 10.5164C114.016 9.97525 112.757 9.69994 111.484 9.71081C110.891 9.72149 110.317 9.80929 109.8 10.1201C109.31 10.4132 109.062 10.8391 109.136 11.4252C109.182 11.7978 109.406 12.0576 109.689 12.2712C110.282 12.7208 110.964 13.0174 111.609 13.3734C112.345 13.7803 113.071 14.2039 113.713 14.7508C115.512 16.2932 115.309 19.1525 113.504 20.6237C112.535 21.415 111.41 21.8256 110.196 22.0379C109.583 22.1375 108.963 22.1903 108.342 22.1957Z" fill="#114185"/>
<path d="M61.3389 18.7028C61.2784 19.0587 61.1254 19.3778 61.0127 19.7136C60.7979 20.3531 60.5689 20.9867 60.3566 21.6273C60.341 21.6914 60.3055 21.7489 60.2552 21.7915C60.2048 21.8341 60.1423 21.8597 60.0766 21.8646C58.6528 22.1019 57.2137 22.2526 55.7674 22.1434C53.6093 21.9809 51.7585 21.1943 50.4866 19.3553C49.5896 18.0597 49.2729 16.5873 49.3524 15.0367C49.4852 12.4502 50.5815 10.3336 52.602 8.71292C53.76 7.78513 55.122 7.32954 56.573 7.13971C58.3692 6.88513 60.1981 6.99447 61.9511 7.46123C62.2857 7.55259 62.6084 7.68072 62.9371 7.7875C63.0557 7.82547 63.0866 7.87648 63.0427 8.00581C62.7627 8.82445 62.4851 9.64547 62.2228 10.47C62.1647 10.6516 62.0828 10.6148 61.9654 10.5685C61.1277 10.225 60.2406 10.0171 59.3374 9.95275C57.3834 9.84242 55.6844 10.3799 54.4647 12.0065C53.3222 13.5311 53.1454 16.0629 54.3686 17.5934C55.1291 18.5426 56.1329 19.0456 57.324 19.1845C58.609 19.3339 59.8512 19.086 61.0779 18.7336C61.1562 18.7111 61.2357 18.6956 61.3152 18.6767L61.3389 18.7028Z" fill="#114185"/>
<path d="M74.8645 18.6861C74.5916 19.4716 74.2784 20.2487 74.0541 21.0507C73.8916 21.6356 73.6175 21.9133 72.9792 21.9773C71.1996 22.1553 69.4199 22.3546 67.6402 21.8836C64.8414 21.1397 63.0131 18.9068 62.8613 16.0048C62.6952 12.8512 63.903 10.3312 66.4431 8.46732C67.5109 7.68546 68.7567 7.31529 70.057 7.14563C71.8527 6.89189 73.6811 7.00082 75.434 7.46597C75.7591 7.55495 76.0711 7.68783 76.395 7.78156C76.5647 7.83139 76.5694 7.90851 76.5136 8.05681C76.2419 8.85054 75.9726 9.64427 75.7199 10.4439C75.6594 10.635 75.587 10.6278 75.4316 10.5685C74.1882 10.0939 72.9163 9.83648 71.5745 9.97529C69.2953 10.2197 67.5608 11.7265 67.123 13.9439C66.8074 15.5444 67.0969 17.0085 68.3723 18.1416C69.3891 19.0433 70.6265 19.2948 71.9447 19.2177C72.8746 19.1564 73.7934 18.9811 74.6806 18.6956C74.734 18.6861 74.7814 18.6422 74.8645 18.6861Z" fill="#114185"/>
<path d="M29.6658 15.4211L14.8863 0.641602V2.91008L27.3973 15.4211L27.4021 15.4258L16.5651 26.2628L16.5521 26.2497L5.72225 15.4211L5.71276 15.4116L11.0292 10.0952H8.72157L3.40039 15.4163L3.40514 15.4211L16.5473 28.5633L16.5521 28.5586L29.6777 15.433L29.6658 15.4211Z" fill="#FE6309"/>
<path d="M14.8815 4.47168V6.74016L23.5674 15.4261L16.5698 22.4237L9.56625 15.4213L9.55676 15.4119L14.8732 10.0954H12.5656L7.24438 15.4166L7.24913 15.4213L15.4107 23.5829L16.552 24.7242L17.7123 23.5651L25.843 15.4332L14.8815 4.47168Z" fill="#FE6309"/>
<path d="M22.0121 15.4212L17.678 11.0824L16.5248 9.9292L15.3905 11.0634L11.0339 15.4165L15.3929 19.7755L16.5343 20.9168L17.6922 19.7577L22.0239 15.4331L22.0121 15.4212ZM16.5544 18.6246L13.3511 15.4212L13.3416 15.4117L16.5366 12.2167L19.74 15.42L16.5544 18.6246Z" fill="#FE6309"/>
</g>
<defs>
<clipPath id="clip0_ACCESSClip">
<rect y="0.602539" width="118.644" height="28" fill="white"/>
</clipPath>
</defs>
</svg>
