<svg width="40" height="40" viewBox="0 0 40 40" fill="none" xmlns="http://www.w3.org/2000/svg"><circle cx="20.0002" cy="20" r="20" fill="#DFE3FF"></circle><path d="M19.9628 23.6875C19.806 23.6875 19.6492 23.6275 19.5297 23.5081L17.0797 21.0581C16.8403 20.8186 16.8403 20.4315 17.0797 20.192C17.3192 19.9525 17.7063 19.9525 17.9458 20.192L19.9628 22.2089L21.9797 20.192C22.2192 19.9525 22.6063 19.9525 22.8458 20.192C23.0853 20.4315 23.0853 20.8186 22.8458 21.0581L20.3958 23.5081C20.2764 23.6275 20.1196 23.6875 19.9628 23.6875Z" fill="#40196D"></path><path d="M19.9627 23.6875C19.6246 23.6875 19.3502 23.4137 19.3502 23.075V16.95C19.3502 16.6119 19.6246 16.3375 19.9627 16.3375C20.3008 16.3375 20.5752 16.6119 20.5752 16.95V23.075C20.5752 23.4137 20.3008 23.6875 19.9627 23.6875Z" fill="#40196D"></path><path d="M26.3542 29.2H13.5732C12.7059 29.2 12.0003 28.5121 12.0003 27.6669V15.0843C12.0003 14.552 12.2165 14.0308 12.5925 13.6541L16.0538 10.1929C16.436 9.81006 16.9444 9.59998 17.4846 9.59998H26.3536C27.2203 9.59998 27.9253 10.2872 27.9253 11.1318V27.6681C27.9253 28.5128 27.2209 29.2 26.3542 29.2ZM17.4846 10.825C17.2714 10.825 17.0711 10.9077 16.9205 11.0583L13.4586 14.5202C13.3104 14.6684 13.2253 14.8742 13.2253 15.0843V27.6669C13.2253 27.8366 13.3814 27.975 13.5732 27.975H26.3536C26.5447 27.975 26.7003 27.8372 26.7003 27.6681V11.1318C26.7003 10.9628 26.5447 10.825 26.3536 10.825H17.4846Z" fill="#40196D"></path></svg>