<svg width="30" height="22" viewBox="0 0 30 22" fill="none" xmlns="http://www.w3.org/2000/svg"><path d="M15.0055 0.168945C19.3554 0.168945 23.7166 0.168945 28.0666 0.168945C28.7522 0.168945 29.303 0.406477 29.6177 1.02858C29.7526 1.28874 29.8088 1.61676 29.8088 1.92216C29.82 7.45326 29.82 12.9844 29.82 18.5155C29.82 18.8435 29.82 19.1715 29.8088 19.4995C29.7638 20.3931 29.1007 21.0491 28.2014 21.0491C19.4116 21.0491 10.6331 21.0491 1.84325 21.0491C0.831636 21.0491 0.157227 20.3705 0.157227 19.3525C0.157227 13.5499 0.157227 7.73603 0.157227 1.93347C0.157227 0.824986 0.820396 0.168945 1.93317 0.168945C6.29436 0.168945 10.6555 0.168945 15.0055 0.168945ZM0.831636 9.01418C0.820396 9.08204 0.820396 9.11598 0.820396 9.14991C0.820396 12.5545 0.820396 15.9592 0.820396 19.3525C0.820396 20.0085 1.2138 20.3931 1.88821 20.3931C10.5993 20.3931 19.3105 20.3931 28.0216 20.3931C28.8421 20.3931 29.2018 20.0311 29.2018 19.2054C29.2018 15.9026 29.2018 12.6111 29.2018 9.30827C29.2018 9.20647 29.2018 9.10467 29.2018 9.00287C19.7151 9.01418 10.2846 9.01418 0.831636 9.01418ZM0.820396 4.41059C10.2846 4.41059 19.7151 4.41059 29.1681 4.41059C29.1681 4.30879 29.1793 4.2183 29.1793 4.12781C29.1793 3.42652 29.1569 2.71393 29.1906 2.01264C29.2243 1.30005 28.7747 0.836297 28.0216 0.836297C19.3667 0.836297 10.7005 0.836297 2.04557 0.836297C1.94441 0.836297 1.84325 0.836297 1.74209 0.847608C1.19132 0.892852 0.854117 1.20956 0.831636 1.7638C0.809156 2.63475 0.820396 3.5057 0.820396 4.41059ZM0.831636 8.35814C1.13512 8.35814 1.40489 8.35814 1.68589 8.35814C10.7005 8.35814 19.7264 8.35814 28.741 8.35814C28.8084 8.35814 28.8759 8.34683 28.9321 8.35814C29.1344 8.38076 29.1793 8.29027 29.1793 8.09798C29.1681 7.17048 29.1793 6.25428 29.1793 5.32678C29.1793 5.25891 29.1681 5.17974 29.1569 5.08925C19.7039 5.08925 10.2734 5.08925 0.820396 5.08925C0.831636 6.1638 0.831636 7.22703 0.831636 8.35814Z" fill="#979797"></path><path d="M14.8595 21.2188C10.532 21.2188 6.19333 21.2188 1.86587 21.2188C0.753091 21.2188 0 20.4723 0 19.3525C0 13.5499 0 7.73602 0 1.93346C0 0.745796 0.741851 -0.000732422 1.94455 -0.000732422C5.12552 -0.000732422 8.31772 -0.000732422 11.4987 -0.000732422H18.254C21.5249 -0.000732422 24.7958 -0.000732422 28.0667 -0.000732422C28.876 -0.000732422 29.4492 0.315977 29.764 0.949395C29.8988 1.22086 29.9775 1.56019 29.9775 1.92214C29.9888 6.63885 29.9888 11.4347 29.9888 16.0723V18.5268V18.7304C29.9888 18.9905 29.9888 19.262 29.9775 19.5221C29.9326 20.5175 29.1907 21.2301 28.2016 21.2301C23.7617 21.2188 19.3106 21.2188 14.8595 21.2188ZM8.003 0.338599C5.97977 0.338599 3.96778 0.338599 1.94455 0.338599C0.921693 0.338599 0.337205 0.926773 0.337205 1.93346C0.337205 7.73602 0.337205 13.5499 0.337205 19.3525C0.337205 20.28 0.932934 20.8794 1.85463 20.8794C10.6444 20.8794 19.423 20.8794 28.2128 20.8794C29.0109 20.8794 29.6066 20.3026 29.6516 19.4995C29.6628 19.2393 29.6628 18.9792 29.6628 18.719V18.5154V16.0609C29.6628 11.4234 29.6628 6.62754 29.6516 1.91083C29.6516 1.61675 29.5841 1.31135 29.4717 1.09644C29.2132 0.576131 28.7523 0.327288 28.0779 0.327288C24.807 0.327288 21.5362 0.327288 18.2653 0.327288H11.5099C10.3297 0.338599 9.17198 0.338599 8.003 0.338599ZM15.2866 20.5741C10.813 20.5741 6.35069 20.5741 1.87711 20.5741C1.12402 20.5741 0.65193 20.1103 0.640689 19.3638C0.640689 16.6944 0.640689 14.025 0.640689 11.3669V9.16121C0.640689 9.12728 0.640689 9.10466 0.65193 9.05941C0.65193 9.0481 0.65193 9.02548 0.66317 9.00286L0.67441 8.8445H29.3593V11.955C29.3593 14.3756 29.3593 16.7962 29.3593 19.2167C29.3593 20.1442 28.9322 20.5741 28.0105 20.5741C23.7729 20.5741 19.5242 20.5741 15.2866 20.5741ZM0.989135 9.18383V11.3556C0.989135 14.025 0.989135 16.6831 0.989135 19.3525C0.989135 19.918 1.30386 20.2234 1.88835 20.2234C10.5995 20.2234 19.3106 20.2234 28.0217 20.2234C28.7523 20.2234 29.0333 19.9519 29.0333 19.2054C29.0333 16.7849 29.0333 14.3643 29.0333 11.9437V9.17252H0.989135V9.18383ZM28.9996 8.52779C28.9771 8.52779 28.9434 8.52779 28.9209 8.52779C28.8872 8.52779 28.8535 8.52779 28.8085 8.52779C28.7861 8.52779 28.7636 8.52779 28.7411 8.52779H0.66317V4.91957H29.3256L29.3368 5.07793C29.3368 5.10055 29.3368 5.13448 29.3481 5.1571C29.3593 5.21366 29.3593 5.27021 29.3593 5.32677C29.3593 5.62085 29.3593 5.91494 29.3593 6.20903C29.3593 6.83114 29.3593 7.47587 29.3593 8.09797C29.3593 8.21108 29.3481 8.35813 29.2469 8.44862C29.1795 8.50517 29.1008 8.52779 28.9996 8.52779ZM28.8647 8.17715C28.8985 8.17715 28.9209 8.17715 28.9547 8.17715C28.9771 8.17715 28.9996 8.17715 29.0109 8.17715C29.0109 8.16584 29.0221 8.13191 29.0221 8.08666C29.0109 7.45324 29.0221 6.80851 29.0221 6.18641C29.0221 5.89232 29.0221 5.59823 29.0221 5.30415C29.0221 5.28152 29.0221 5.2589 29.0221 5.23628H1.00037V8.15453H28.7411C28.7636 8.15453 28.7748 8.15453 28.7973 8.15453C28.8198 8.17715 28.8423 8.17715 28.8647 8.17715ZM29.3368 4.58024H0.65193V4.41057C0.65193 4.13911 0.65193 3.87895 0.65193 3.60749C0.65193 2.99669 0.640689 2.37459 0.66317 1.75248C0.67441 1.13037 1.06782 0.723174 1.71975 0.67793C1.82091 0.666619 1.92207 0.666619 2.02323 0.666619H7.80068C14.4324 0.666619 21.2889 0.666619 28.033 0.655308C28.4489 0.655308 28.7973 0.79104 29.0446 1.03988C29.2694 1.27742 29.393 1.61675 29.3706 2.01263C29.3481 2.4877 29.3593 2.98538 29.3593 3.44914C29.3593 3.67536 29.3593 3.90158 29.3593 4.11649C29.3593 4.18435 29.3593 4.25222 29.3481 4.32009L29.3368 4.58024ZM0.989135 4.24091H29.0109C29.0109 4.19566 29.0109 4.16173 29.0109 4.11649C29.0109 3.89027 29.0109 3.67536 29.0109 3.44914C29.0109 2.97407 28.9996 2.47639 29.0221 1.99001C29.0333 1.68461 28.9547 1.43577 28.7861 1.2661C28.6175 1.08513 28.3477 0.994639 28.0217 0.994639C21.2776 1.00595 14.4211 1.00595 7.78944 1.00595H2.02323C1.93331 1.00595 1.84339 1.00595 1.75347 1.01726C1.41626 1.05119 1.01161 1.19824 1.00037 1.7751C0.977894 2.37459 0.989135 2.97407 0.989135 3.60749C0.989135 3.8224 0.989135 4.026 0.989135 4.24091Z" fill="#979797"></path><path d="M9.83514 14.7716C8.04795 14.7716 6.26077 14.7716 4.47358 14.7716C4.36118 14.7716 4.23754 14.7829 4.14762 14.7264C4.0577 14.6698 3.96777 14.5454 3.96777 14.4436C3.96777 14.3418 4.05769 14.2174 4.13638 14.1608C4.21506 14.1042 4.34994 14.1042 4.46234 14.1042C8.04795 14.1042 11.6336 14.1042 15.2192 14.1042C15.6013 14.1042 15.7699 14.206 15.7699 14.4323C15.7699 14.6698 15.6238 14.7716 15.2304 14.7716C13.432 14.7716 11.6336 14.7716 9.83514 14.7716Z" fill="#979797"></path><path d="M7.83455 14.9412C6.71053 14.9412 5.58651 14.9412 4.4625 14.9412H4.42878C4.31637 14.9412 4.15901 14.9412 4.04661 14.862C3.92297 14.7829 3.78809 14.6132 3.78809 14.4435C3.78809 14.2739 3.91173 14.0929 4.03537 14.0137C4.15901 13.9345 4.31637 13.9232 4.45126 13.9232C8.04811 13.9232 11.6337 13.9232 15.2081 13.9232C15.4891 13.9232 15.6802 13.9798 15.8038 14.1042C15.8825 14.1834 15.9275 14.2965 15.9275 14.4322C15.9275 14.9412 15.4104 14.9412 15.2193 14.9412C13.893 14.9412 12.5667 14.9412 11.2516 14.9412H9.8353H8.83492C8.50896 14.9412 8.17175 14.9412 7.83455 14.9412ZM4.47374 14.6019C5.92372 14.6019 7.38494 14.6019 8.83492 14.6019H9.8353H11.2516C12.5779 14.6019 13.9042 14.6019 15.2193 14.6019C15.5903 14.6019 15.5903 14.5227 15.5903 14.4322C15.5903 14.3757 15.579 14.353 15.5678 14.3417C15.5453 14.3078 15.4554 14.2626 15.2193 14.2626C11.6337 14.2626 8.04811 14.2626 4.4625 14.2626C4.38382 14.2626 4.27141 14.2626 4.23769 14.2852C4.18149 14.3191 4.13653 14.3983 4.13653 14.4322C4.13653 14.4662 4.18149 14.534 4.23769 14.568C4.27141 14.5906 4.37257 14.5906 4.44002 14.5906L4.47374 14.6019Z" fill="#979797"></path></svg>