<svg width="50" height="51" viewBox="0 0 50 51" fill="none" xmlns="http://www.w3.org/2000/svg">
<g clip-path="url(#clip0_GTBLOGOClip)">
<path fill-rule="evenodd" clip-rule="evenodd" d="M0 0.602539H49.5V50.6025H0V0.602539Z" fill="#D94F00"/>
<path fill-rule="evenodd" clip-rule="evenodd" d="M28.1632 10.2979H40.8526V22.9883H28.1632V10.2979ZM12.8224 29.4075V30.649H15.0095V37.2171H16.5175V30.5989H18.5537V29.3574L12.8224 29.4084V29.4075ZM11.6961 30.9467V29.7052C10.4863 29.1592 9.09502 28.9943 7.67051 29.7052C5.33438 30.7477 5.25089 35.9101 7.58787 36.9194C8.92974 37.598 11.7285 37.2834 12.0105 36.6873V32.6006H9.22793V33.6763H10.4531V35.8276C6.42747 37.78 5.68199 28.3982 11.6961 30.9467ZM21.0065 33.6099H22.4472C23.64 33.6601 23.9552 35.9101 22.3978 35.8931H21.0065V33.6099ZM21.0065 30.4501H22.4472C23.64 30.6652 23.2098 32.4356 22.3978 32.4849H21.0065V30.4501ZM19.5156 29.2426V37.1507H23.4747C25.4956 36.4228 25.5791 33.2961 23.4747 32.9645C25.413 32.7502 25.5127 29.1924 22.1661 29.1924L19.5156 29.2426ZM26.5061 31.4594V32.6337C27.5659 32.3361 29.8688 31.5087 29.6533 33.263C27.6324 33.1303 26.2573 33.4943 26.0256 34.7511C25.6447 37.4654 28.5602 37.7298 29.7862 36.3897V37.0351H31.1775V32.2698C30.8299 30.7307 28.5278 30.5325 26.5061 31.4594ZM27.6818 34.5206C27.997 34.1065 29.0075 34.1227 29.6865 34.3217V35.3642C28.5772 36.5546 26.7881 36.0096 27.6827 34.5198L27.6818 34.5206ZM34.0606 32.8659C34.4252 32.4688 36.3635 31.7239 36.6617 32.8659V37.0683H38.2182V32.6176C37.8868 30.7638 36.1138 30.4331 33.9609 31.6907V30.996H32.487V37.1014H34.0435L34.0606 32.8659ZM43.1052 30.9297L41.0681 33.6592L43.2219 37.0181L45.0937 36.9688L42.7252 33.7426L44.862 30.979L43.106 30.9297H43.1052ZM39.3786 28.9271H40.919V37.0181H39.3778V28.9279L39.3786 28.9271Z" fill="white"/>
<path fill-rule="evenodd" clip-rule="evenodd" d="M28.1631 10.2979H40.8525V22.9883H28.1631V10.2979Z" fill="white"/>
</g>
<defs>
<clipPath id="clip0_GTBLOGOClip">
<rect y="0.602539" width="49.5" height="50" fill="white"/>
</clipPath>
</defs>
</svg>
