<svg width="26" height="25" viewBox="0 0 26 25" fill="none" xmlns="http://www.w3.org/2000/svg" class="filled"><path d="M13.0698 1L1.7078 10.7678L1 11.837L3.18859 12.1078L3.96624 12.5374L3.82189 16.9963L3.75204 20.9604V23.1642L4.52969 24H7.91967H15.3283H21.6799L22.3877 23.5051V20.1853V14.0081L22.7416 12.1078L23.7986 11.907H25V10.9779L22.8114 8.8581L22.4575 7.08851L22.1781 5.17418L20.9069 4.824L20.0594 5.31892L19.2817 5.95392L17.447 4.11429L13.0698 1Z" fill="#40196D"></path><path d="M19.484 6.38374L19.1521 6.75768L19.984 7.49612V6.38374H19.484ZM22.2611 8.84876H21.7611V9.0735L21.9292 9.2227L22.2611 8.84876ZM24.4602 10.8007L24.1283 11.1746L24.4602 10.8007ZM22.2611 12.1315V11.6315H21.7611V12.1315H22.2611ZM3.74731 12.1315H4.24731V11.6315H3.74731V12.1315ZM1.53944 10.8007L1.87136 11.1746L1.53944 10.8007ZM12.247 1.2963L12.5789 1.67024L12.247 1.2963ZM13.7526 1.2963L13.4207 1.67024L13.7526 1.2963ZM15.7813 14.4139V13.9139H15.2813V14.4139H15.7813ZM15.7813 21.1242H15.2813V21.6242H15.7813V21.1242ZM19.484 21.1242V21.6242H19.984V21.1242H19.484ZM19.484 14.4139H19.984V13.9139H19.484V14.4139ZM19.984 6.38374V6.22H18.984V6.38374H19.984ZM19.984 6.22C19.984 5.72463 20.379 5.32767 20.8726 5.32767V4.32767C19.8217 4.32767 18.984 5.17744 18.984 6.22H19.984ZM20.8726 5.32767C21.3639 5.32767 21.7611 5.71989 21.7611 6.22H22.7611C22.7611 5.16651 21.915 4.32767 20.8726 4.32767V5.32767ZM21.7611 6.22V8.84876H22.7611V6.22H21.7611ZM21.9292 9.2227L24.1283 11.1746L24.7921 10.4268L22.593 8.47482L21.9292 9.2227ZM24.1283 11.1746C24.3065 11.3329 24.3985 11.4583 24.4388 11.54C24.4783 11.6199 24.4502 11.6163 24.4679 11.5683C24.4861 11.5191 24.5118 11.5328 24.4337 11.5651C24.3529 11.5987 24.2044 11.6315 23.9687 11.6315V12.6315C24.2822 12.6315 24.5733 12.5899 24.817 12.4888C25.0635 12.3865 25.2986 12.2052 25.4059 11.9152C25.5127 11.6263 25.4533 11.336 25.3356 11.0975C25.2188 10.8607 25.0279 10.636 24.7921 10.4268L24.1283 11.1746ZM23.9687 11.6315H22.2611V12.6315H23.9687V11.6315ZM21.7611 12.1315V23.0003H22.7611V12.1315H21.7611ZM21.7611 23.0003C21.7611 23.2745 21.5292 23.5 21.2657 23.5V24.5C22.0777 24.5 22.7611 23.8305 22.7611 23.0003H21.7611ZM21.2657 23.5H4.74269V24.5H21.2657V23.5ZM4.74269 23.5C4.47066 23.5 4.24731 23.2794 4.24731 23.0003H3.24731C3.24731 23.8285 3.91526 24.5 4.74269 24.5V23.5ZM4.24731 23.0003V12.1315H3.24731V23.0003H4.24731ZM3.74731 11.6315H2.03095V12.6315H3.74731V11.6315ZM2.03095 11.6315C1.79478 11.6315 1.64592 11.5987 1.56478 11.5652C1.48633 11.5327 1.51218 11.5191 1.53055 11.5686C1.54851 11.6171 1.52022 11.621 1.55979 11.5409C1.60024 11.4591 1.69253 11.3334 1.87136 11.1746L1.20752 10.4268C0.971436 10.6363 0.780274 10.8611 0.663285 11.0979C0.54543 11.3364 0.485719 11.627 0.592854 11.9161C0.700386 12.2063 0.935991 12.3872 1.18243 12.4892C1.42619 12.59 1.71737 12.6315 2.03095 12.6315V11.6315ZM1.87136 11.1746L12.5789 1.67024L11.9151 0.922366L1.20752 10.4268L1.87136 11.1746ZM12.5789 1.67024C12.8063 1.46841 13.1916 1.46693 13.4207 1.67024L14.0845 0.922366C13.4747 0.381123 12.5192 0.386133 11.9151 0.922366L12.5789 1.67024ZM13.4207 1.67024L19.1521 6.75768L19.816 6.0098L14.0845 0.922366L13.4207 1.67024ZM15.2813 14.4139V21.1242H16.2813V14.4139H15.2813ZM15.7813 21.6242H19.484V20.6242H15.7813V21.6242ZM19.984 21.1242V14.4139H18.984V21.1242H19.984ZM19.484 13.9139H15.7813V14.9139H19.484V13.9139Z" fill="#40196D"></path><rect x="16" y="14" width="4" height="8" fill="white"></rect></svg>