<svg width="26" height="26" viewBox="0 0 26 26" fill="none" xmlns="http://www.w3.org/2000/svg"><path d="M13.427 1.00806C13.2842 1.00291 13.1421 1 13 1C8.72556 1 4.74048 3.30273 2.59961 7.00881C1.55369 8.82152 1 10.8935 1 13C1 19.6167 6.38331 25 13 25C17.2759 25 21.2595 22.6973 23.3989 18.9912C23.4678 18.8711 23.5345 18.751 23.5996 18.6279L13.427 12.7539V1.00806ZM22.4373 18.9414L22.2776 19.1794C21.3474 20.5718 20.095 21.7568 18.655 22.6079C17.815 23.1023 16.9148 23.4854 15.9795 23.7432C15.0149 24.0113 14.0122 24.146 13 24.146C11.4942 24.146 10.0352 23.8516 8.66191 23.27C7.33328 22.709 6.14092 21.9048 5.11844 20.8809C4.09305 19.8569 3.28956 18.6653 2.73002 17.3374C2.14769 15.9663 1.85327 14.5059 1.85327 13C1.85327 12.0054 1.98362 11.0195 2.24144 10.0703C2.49119 9.15184 2.86033 8.26562 3.33859 7.4365C4.30028 5.76953 5.686 4.37205 7.34495 3.39278C8.18209 2.89839 9.08153 2.51608 10.0183 2.25681C10.7558 2.05248 11.5197 1.92578 12.2888 1.8767L12.573 1.85838V13C12.573 13.1655 12.6653 13.3127 12.8125 13.3838L12.964 13.4725L22.4373 18.9414Z" fill="#979797" stroke="#979797" stroke-width="0.4"></path><path d="M15.915 1.3589C15.8631 1.34352 15.8213 1.33691 15.7795 1.33691C15.5444 1.33691 15.3525 1.52882 15.3525 1.7632C15.3525 1.96241 15.4932 2.13674 15.6873 2.17996C16.252 2.32059 16.8042 2.50443 17.3374 2.72999C18.663 3.28959 19.8554 4.09377 20.8808 5.11771C21.9055 6.1431 22.709 7.33546 23.27 8.66118C23.8508 10.0367 24.1445 11.4957 24.1445 13C24.1445 13.9947 24.0149 14.9805 23.757 15.929L23.716 16.0806C23.7006 16.1274 23.694 16.1684 23.694 16.2109C23.694 16.4453 23.8866 16.6372 24.1225 16.6372C24.3217 16.6372 24.4968 16.4966 24.5385 16.3032C24.8454 15.22 25 14.1148 25 13C25 7.48635 21.2639 2.69924 15.915 1.3589Z" fill="#979797" stroke="#979797" stroke-width="0.4"></path></svg>