<svg xmlns="http://www.w3.org/2000/svg" viewBox="0 0 2123 2000" width="2123" height="2000" class="your-money--illustration" preserveAspectRatio="none" style="width: 100%; height: 100%; transform: translate3d(0px, 0px, 0px);"><defs><clipPath id="__lottie_element_140"><rect width="2123" height="2000" x="0" y="0"></rect></clipPath><clipPath id="__lottie_element_142"><path d="M0,0 L2123,0 L2123,2000 L0,2000z"></path></clipPath><mask id="__lottie_element_151" mask-type="alpha"><g transform="matrix(1,0,0,1,138.260986328125,43.49200439453125)" opacity="1" style="display: block;"><g opacity="1" transform="matrix(1,0,0,1,956.4849853515625,956.4849853515625)"><path fill="rgb(219,248,255)" fill-opacity="1" d=" M0,-956.2349853515625 C528.114013671875,-956.2349853515625 956.2349853515625,-528.114013671875 956.2349853515625,0 C956.2349853515625,528.114013671875 528.114013671875,956.2349853515625 0,956.2349853515625 C-528.114013671875,956.2349853515625 -956.2349853515625,528.114013671875 -956.2349853515625,0 C-956.2349853515625,-528.114013671875 -528.114013671875,-956.2349853515625 0,-956.2349853515625z"></path></g></g></mask><clipPath id="__lottie_element_158"><path d="M0,0 L2123,0 L2123,2000 L0,2000z"></path></clipPath><mask id="__lottie_element_165" mask-type="alpha"><g style="display: block;" transform="matrix(1,0,0,1,138.260986328125,43.49200439453125)" opacity="1"><g opacity="1" transform="matrix(1,0,0,1,956.4849853515625,956.4849853515625)"><path fill="rgb(219,248,255)" fill-opacity="1" d=" M0,-956.2349853515625 C528.114013671875,-956.2349853515625 956.2349853515625,-528.114013671875 956.2349853515625,0 C956.2349853515625,528.114013671875 528.114013671875,956.2349853515625 0,956.2349853515625 C-528.114013671875,956.2349853515625 -956.2349853515625,528.114013671875 -956.2349853515625,0 C-956.2349853515625,-528.114013671875 -528.114013671875,-956.2349853515625 0,-956.2349853515625z"></path></g></g></mask><mask id="__lottie_element_161" mask-type="alpha"><g style="display: block;" transform="matrix(1,0,0,1,1061.5,1000)" opacity="1"><g opacity="1" transform="matrix(1,0,0,1,0,0)"><path fill="rgb(64,24,108)" fill-opacity="1" d=" M106.5,-688 C106.5,-688 -43.5,-684 -43.5,-684 C-43.5,-684 -45.5,-388 -45.5,-388 C-45.5,-388 36.5,-326 36.5,-326 C36.5,-326 106.5,-384 106.5,-384 C106.5,-384 106.5,-688 106.5,-688z"></path></g></g></mask><clipPath id="__lottie_element_174"><path d="M0,0 L2123,0 L2123,2000 L0,2000z"></path></clipPath><mask id="__lottie_element_181" mask-type="alpha"><g style="display: block;" transform="matrix(1,0,0,1,138.260986328125,43.49200439453125)" opacity="1"><g opacity="1" transform="matrix(1,0,0,1,956.4849853515625,956.4849853515625)"><path fill="rgb(219,248,255)" fill-opacity="1" d=" M0,-956.2349853515625 C528.114013671875,-956.2349853515625 956.2349853515625,-528.114013671875 956.2349853515625,0 C956.2349853515625,528.114013671875 528.114013671875,956.2349853515625 0,956.2349853515625 C-528.114013671875,956.2349853515625 -956.2349853515625,528.114013671875 -956.2349853515625,0 C-956.2349853515625,-528.114013671875 -528.114013671875,-956.2349853515625 0,-956.2349853515625z"></path></g></g></mask><mask id="__lottie_element_177" mask-type="alpha"><g style="display: block;" transform="matrix(1,0,0,1,1061.5,2251.28515625)" opacity="1"><g opacity="1" transform="matrix(1,0,0,1,0,0)"><path fill="rgb(64,24,108)" fill-opacity="1" d=" M106.5,-688 C106.5,-688 -43.5,-684 -43.5,-684 C-43.5,-684 -45.5,-388 -45.5,-388 C-45.5,-388 36.5,-326 36.5,-326 C36.5,-326 106.5,-384 106.5,-384 C106.5,-384 106.5,-688 106.5,-688z"></path></g></g></mask></defs><g clip-path="url(#__lottie_element_140)"><g transform="matrix(1,0,0,1,138.260986328125,43.49200439453125)" opacity="1" style="display: block;"><g opacity="1" transform="matrix(1,0,0,1,956.4849853515625,956.4849853515625)"><path fill="rgb(219,248,255)" fill-opacity="1" d=" M0,-956.2349853515625 C528.114013671875,-956.2349853515625 956.2349853515625,-528.114013671875 956.2349853515625,0 C956.2349853515625,528.114013671875 528.114013671875,956.2349853515625 0,956.2349853515625 C-528.114013671875,956.2349853515625 -956.2349853515625,528.114013671875 -956.2349853515625,0 C-956.2349853515625,-528.114013671875 -528.114013671875,-956.2349853515625 0,-956.2349853515625z"></path></g></g><g clip-path="url(#__lottie_element_174)" style="display: block;" transform="matrix(1,0,0,1,0,0)" opacity="1"><g mask="url(#__lottie_element_181)" style="display: block;"><g transform="matrix(1,0,0,1,947.8330078125,1998.3770751953125)" opacity="1"><g opacity="1" transform="matrix(1,0,0,1,146.91299438476562,146.74400329589844)"><path fill="rgb(255,199,61)" fill-opacity="1" d=" M0,146.49400329589844 C81.00199890136719,146.49400329589844 146.66299438476562,80.90599822998047 146.66299438476562,0.0020000000949949026 C146.66299438476562,-80.90599822998047 81.00199890136719,-146.49400329589844 0,-146.49400329589844 C-80.99700164794922,-146.49400329589844 -146.66299438476562,-80.90599822998047 -146.66299438476562,0.0020000000949949026 C-146.66299438476562,80.90599822998047 -80.99700164794922,146.49400329589844 0,146.49400329589844z"></path></g><g opacity="1" transform="matrix(1,0,0,1,146.8979949951172,146.93600463867188)"><path fill="rgb(225,148,26)" fill-opacity="1" d=" M0,135.32699584960938 C-74.7020034790039,135.32699584960938 -135.48399353027344,74.61599731445312 -135.48399353027344,0.0010000000474974513 C-135.48399353027344,-74.61900329589844 -74.7020034790039,-135.32699584960938 0,-135.32699584960938 C74.7020034790039,-135.32699584960938 135.48399353027344,-74.61900329589844 135.48399353027344,0.0010000000474974513 C135.48399353027344,74.61599731445312 74.7020034790039,135.32699584960938 0,135.32699584960938z M0,-128.67300415039062 C-70.9749984741211,-128.67300415039062 -128.62399291992188,-71.09200286865234 -128.62399291992188,-0.19499999284744263 C-128.62399291992188,70.7020034790039 -70.9749984741211,128.2779998779297 0,128.2779998779297 C70.97899627685547,128.2779998779297 128.62399291992188,70.7020034790039 128.62399291992188,-0.19499999284744263 C128.81900024414062,-70.89700317382812 70.97899627685547,-128.67300415039062 0,-128.67300415039062z"></path></g><g opacity="1" transform="matrix(1,0,0,1,146.906005859375,137.38099670410156)"><path fill="rgb(225,148,26)" fill-opacity="1" d=" M69.41100311279297,-2.1540000438690186 C69.41100311279297,-2.1540000438690186 -69.41100311279297,-2.1540000438690186 -69.41100311279297,-2.1540000438690186 C-69.41100311279297,-2.1540000438690186 -69.41100311279297,2.1540000438690186 -69.41100311279297,2.1540000438690186 C-69.41100311279297,2.1540000438690186 69.41100311279297,2.1540000438690186 69.41100311279297,2.1540000438690186 C69.41100311279297,2.1540000438690186 69.41100311279297,-2.1540000438690186 69.41100311279297,-2.1540000438690186z"></path></g><g opacity="1" transform="matrix(1,0,0,1,146.906005859375,156.39700317382812)"><path fill="rgb(225,148,26)" fill-opacity="1" d=" M69.41100311279297,-2.1559998989105225 C69.41100311279297,-2.1559998989105225 -69.41100311279297,-2.1559998989105225 -69.41100311279297,-2.1559998989105225 C-69.41100311279297,-2.1559998989105225 -69.41100311279297,2.1559998989105225 -69.41100311279297,2.1559998989105225 C-69.41100311279297,2.1559998989105225 69.41100311279297,2.1559998989105225 69.41100311279297,2.1559998989105225 C69.41100311279297,2.1559998989105225 69.41100311279297,-2.1559998989105225 69.41100311279297,-2.1559998989105225z"></path></g><g opacity="1" transform="matrix(1,0,0,1,146.9149932861328,146.83200073242188)"><path fill="rgb(225,148,26)" fill-opacity="1" d=" M-35.48899841308594,47.10200119018555 C-35.48899841308594,47.10200119018555 -35.48899841308594,-47.297000885009766 -35.48899841308594,-47.297000885009766 C-35.48899841308594,-47.297000885009766 -22.15399932861328,-47.297000885009766 -22.15399932861328,-47.297000885009766 C-22.15399932861328,-47.297000885009766 8.038999557495117,0.4909999966621399 8.038999557495117,0.4909999966621399 C15.100000381469727,11.454999923706055 20.58799934387207,21.441999435424805 25.097000122070312,31.233999252319336 C25.097000122070312,31.233999252319336 25.29800033569336,31.040000915527344 25.29800033569336,31.040000915527344 C24.115999221801758,18.503999710083008 23.92099952697754,6.949999809265137 23.92099952697754,-7.736999988555908 C23.92099952697754,-7.736999988555908 23.92099952697754,-47.297000885009766 23.92099952697754,-47.297000885009766 C23.92099952697754,-47.297000885009766 35.48899841308594,-47.297000885009766 35.48899841308594,-47.297000885009766 C35.48899841308594,-47.297000885009766 35.48899841308594,47.10200119018555 35.48899841308594,47.10200119018555 C35.48899841308594,47.10200119018555 23.139999389648438,47.10200119018555 23.139999389648438,47.10200119018555 C23.139999389648438,47.10200119018555 -6.861999988555908,-0.6859999895095825 -6.861999988555908,-0.6859999895095825 C-13.527000427246094,-11.263999938964844 -19.802000045776367,-22.033000946044922 -24.506999969482422,-32.215999603271484 C-24.506999969482422,-32.215999603271484 -24.902000427246094,-32.02000045776367 -24.902000427246094,-32.02000045776367 C-24.115999221801758,-20.076000213623047 -23.920000076293945,-8.717000007629395 -23.920000076293945,6.949999809265137 C-23.920000076293945,6.949999809265137 -23.920000076293945,47.297000885009766 -23.920000076293945,47.297000885009766 C-23.920000076293945,47.297000885009766 -35.48899841308594,47.297000885009766 -35.48899841308594,47.297000885009766 C-35.48899841308594,47.297000885009766 -35.48899841308594,47.10200119018555 -35.48899841308594,47.10200119018555z"></path></g></g></g><g mask="url(#__lottie_element_177)" style="display: block;"><g transform="matrix(1,0,0,1,1023.9019775390625,317.7900085449219)" opacity="1"><g opacity="1" transform="matrix(1,0,0,1,75.74299621582031,198.17100524902344)"><path fill="rgb(225,148,26)" fill-opacity="1" d=" M4.9039998054504395,-147.76600646972656 C4.9039998054504395,-147.76600646972656 -4.9039998054504395,-147.76600646972656 -4.9039998054504395,-147.76600646972656 C-4.9039998054504395,-147.76600646972656 -4.9039998054504395,147.76600646972656 -4.9039998054504395,147.76600646972656 C-4.9039998054504395,147.76600646972656 4.9039998054504395,147.76600646972656 4.9039998054504395,147.76600646972656 C4.9039998054504395,147.76600646972656 4.9039998054504395,-147.76600646972656 4.9039998054504395,-147.76600646972656z"></path></g><g opacity="1" transform="matrix(1,0,0,1,136.5070037841797,148.01499938964844)"><path fill="rgb(225,148,26)" fill-opacity="1" d=" M4.901000022888184,-147.76499938964844 C4.901000022888184,-147.76499938964844 -4.901000022888184,-147.76499938964844 -4.901000022888184,-147.76499938964844 C-4.901000022888184,-147.76499938964844 -4.901000022888184,147.76499938964844 -4.901000022888184,147.76499938964844 C-4.901000022888184,147.76499938964844 4.901000022888184,147.76499938964844 4.901000022888184,147.76499938964844 C4.901000022888184,147.76499938964844 4.901000022888184,-147.76499938964844 4.901000022888184,-147.76499938964844z"></path></g><g opacity="1" transform="matrix(1,0,0,1,5.151000022888184,148.01499938964844)"><path fill="rgb(225,148,26)" fill-opacity="1" d=" M4.901000022888184,-147.76499938964844 C4.901000022888184,-147.76499938964844 -4.901000022888184,-147.76499938964844 -4.901000022888184,-147.76499938964844 C-4.901000022888184,-147.76499938964844 -4.901000022888184,147.76499938964844 -4.901000022888184,147.76499938964844 C-4.901000022888184,147.76499938964844 4.901000022888184,147.76499938964844 4.901000022888184,147.76499938964844 C4.901000022888184,147.76499938964844 4.901000022888184,-147.76499938964844 4.901000022888184,-147.76499938964844z"></path></g></g></g></g><g clip-path="url(#__lottie_element_158)" style="display: block;" transform="matrix(1,0,0,1,0,0)" opacity="1"><g mask="url(#__lottie_element_165)" style="display: block;"><g transform="matrix(1,0,0,1,947.8330078125,747.0919799804688)" opacity="1"><g opacity="1" transform="matrix(1,0,0,1,146.91299438476562,146.74400329589844)"><path fill="rgb(255,199,61)" fill-opacity="1" d=" M0,146.49400329589844 C81.00199890136719,146.49400329589844 146.66299438476562,80.90599822998047 146.66299438476562,0.0020000000949949026 C146.66299438476562,-80.90599822998047 81.00199890136719,-146.49400329589844 0,-146.49400329589844 C-80.99700164794922,-146.49400329589844 -146.66299438476562,-80.90599822998047 -146.66299438476562,0.0020000000949949026 C-146.66299438476562,80.90599822998047 -80.99700164794922,146.49400329589844 0,146.49400329589844z"></path></g><g opacity="1" transform="matrix(1,0,0,1,146.8979949951172,146.93600463867188)"><path fill="rgb(225,148,26)" fill-opacity="1" d=" M0,135.32699584960938 C-74.7020034790039,135.32699584960938 -135.48399353027344,74.61599731445312 -135.48399353027344,0.0010000000474974513 C-135.48399353027344,-74.61900329589844 -74.7020034790039,-135.32699584960938 0,-135.32699584960938 C74.7020034790039,-135.32699584960938 135.48399353027344,-74.61900329589844 135.48399353027344,0.0010000000474974513 C135.48399353027344,74.61599731445312 74.7020034790039,135.32699584960938 0,135.32699584960938z M0,-128.67300415039062 C-70.9749984741211,-128.67300415039062 -128.62399291992188,-71.09200286865234 -128.62399291992188,-0.19499999284744263 C-128.62399291992188,70.7020034790039 -70.9749984741211,128.2779998779297 0,128.2779998779297 C70.97899627685547,128.2779998779297 128.62399291992188,70.7020034790039 128.62399291992188,-0.19499999284744263 C128.81900024414062,-70.89700317382812 70.97899627685547,-128.67300415039062 0,-128.67300415039062z"></path></g><g opacity="1" transform="matrix(1,0,0,1,146.906005859375,137.38099670410156)"><path fill="rgb(225,148,26)" fill-opacity="1" d=" M69.41100311279297,-2.1540000438690186 C69.41100311279297,-2.1540000438690186 -69.41100311279297,-2.1540000438690186 -69.41100311279297,-2.1540000438690186 C-69.41100311279297,-2.1540000438690186 -69.41100311279297,2.1540000438690186 -69.41100311279297,2.1540000438690186 C-69.41100311279297,2.1540000438690186 69.41100311279297,2.1540000438690186 69.41100311279297,2.1540000438690186 C69.41100311279297,2.1540000438690186 69.41100311279297,-2.1540000438690186 69.41100311279297,-2.1540000438690186z"></path></g><g opacity="1" transform="matrix(1,0,0,1,146.906005859375,156.39700317382812)"><path fill="rgb(225,148,26)" fill-opacity="1" d=" M69.41100311279297,-2.1559998989105225 C69.41100311279297,-2.1559998989105225 -69.41100311279297,-2.1559998989105225 -69.41100311279297,-2.1559998989105225 C-69.41100311279297,-2.1559998989105225 -69.41100311279297,2.1559998989105225 -69.41100311279297,2.1559998989105225 C-69.41100311279297,2.1559998989105225 69.41100311279297,2.1559998989105225 69.41100311279297,2.1559998989105225 C69.41100311279297,2.1559998989105225 69.41100311279297,-2.1559998989105225 69.41100311279297,-2.1559998989105225z"></path></g><g opacity="1" transform="matrix(1,0,0,1,146.9149932861328,146.83200073242188)"><path fill="rgb(225,148,26)" fill-opacity="1" d=" M-35.48899841308594,47.10200119018555 C-35.48899841308594,47.10200119018555 -35.48899841308594,-47.297000885009766 -35.48899841308594,-47.297000885009766 C-35.48899841308594,-47.297000885009766 -22.15399932861328,-47.297000885009766 -22.15399932861328,-47.297000885009766 C-22.15399932861328,-47.297000885009766 8.038999557495117,0.4909999966621399 8.038999557495117,0.4909999966621399 C15.100000381469727,11.454999923706055 20.58799934387207,21.441999435424805 25.097000122070312,31.233999252319336 C25.097000122070312,31.233999252319336 25.29800033569336,31.040000915527344 25.29800033569336,31.040000915527344 C24.115999221801758,18.503999710083008 23.92099952697754,6.949999809265137 23.92099952697754,-7.736999988555908 C23.92099952697754,-7.736999988555908 23.92099952697754,-47.297000885009766 23.92099952697754,-47.297000885009766 C23.92099952697754,-47.297000885009766 35.48899841308594,-47.297000885009766 35.48899841308594,-47.297000885009766 C35.48899841308594,-47.297000885009766 35.48899841308594,47.10200119018555 35.48899841308594,47.10200119018555 C35.48899841308594,47.10200119018555 23.139999389648438,47.10200119018555 23.139999389648438,47.10200119018555 C23.139999389648438,47.10200119018555 -6.861999988555908,-0.6859999895095825 -6.861999988555908,-0.6859999895095825 C-13.527000427246094,-11.263999938964844 -19.802000045776367,-22.033000946044922 -24.506999969482422,-32.215999603271484 C-24.506999969482422,-32.215999603271484 -24.902000427246094,-32.02000045776367 -24.902000427246094,-32.02000045776367 C-24.115999221801758,-20.076000213623047 -23.920000076293945,-8.717000007629395 -23.920000076293945,6.949999809265137 C-23.920000076293945,6.949999809265137 -23.920000076293945,47.297000885009766 -23.920000076293945,47.297000885009766 C-23.920000076293945,47.297000885009766 -35.48899841308594,47.297000885009766 -35.48899841308594,47.297000885009766 C-35.48899841308594,47.297000885009766 -35.48899841308594,47.10200119018555 -35.48899841308594,47.10200119018555z"></path></g></g></g><g mask="url(#__lottie_element_161)" style="display: block;"><g transform="matrix(1,0,0,1,1023.9019775390625,317.7900085449219)" opacity="1"><g opacity="1" transform="matrix(1,0,0,1,75.74299621582031,198.17100524902344)"><path fill="rgb(225,148,26)" fill-opacity="1" d=" M4.9039998054504395,-147.76600646972656 C4.9039998054504395,-147.76600646972656 -4.9039998054504395,-147.76600646972656 -4.9039998054504395,-147.76600646972656 C-4.9039998054504395,-147.76600646972656 -4.9039998054504395,147.76600646972656 -4.9039998054504395,147.76600646972656 C-4.9039998054504395,147.76600646972656 4.9039998054504395,147.76600646972656 4.9039998054504395,147.76600646972656 C4.9039998054504395,147.76600646972656 4.9039998054504395,-147.76600646972656 4.9039998054504395,-147.76600646972656z"></path></g><g opacity="1" transform="matrix(1,0,0,1,136.5070037841797,148.01499938964844)"><path fill="rgb(225,148,26)" fill-opacity="1" d=" M4.901000022888184,-147.76499938964844 C4.901000022888184,-147.76499938964844 -4.901000022888184,-147.76499938964844 -4.901000022888184,-147.76499938964844 C-4.901000022888184,-147.76499938964844 -4.901000022888184,147.76499938964844 -4.901000022888184,147.76499938964844 C-4.901000022888184,147.76499938964844 4.901000022888184,147.76499938964844 4.901000022888184,147.76499938964844 C4.901000022888184,147.76499938964844 4.901000022888184,-147.76499938964844 4.901000022888184,-147.76499938964844z"></path></g><g opacity="1" transform="matrix(1,0,0,1,5.151000022888184,148.01499938964844)"><path fill="rgb(225,148,26)" fill-opacity="1" d=" M4.901000022888184,-147.76499938964844 C4.901000022888184,-147.76499938964844 -4.901000022888184,-147.76499938964844 -4.901000022888184,-147.76499938964844 C-4.901000022888184,-147.76499938964844 -4.901000022888184,147.76499938964844 -4.901000022888184,147.76499938964844 C-4.901000022888184,147.76499938964844 4.901000022888184,147.76499938964844 4.901000022888184,147.76499938964844 C4.901000022888184,147.76499938964844 4.901000022888184,-147.76499938964844 4.901000022888184,-147.76499938964844z"></path></g></g></g></g><g mask="url(#__lottie_element_151)" style="display: block;"><g transform="matrix(1.1699999570846558,0,0,1.1699999570846558,646.8172607421875,840.5919189453125)" opacity="1"><g opacity="1" transform="matrix(1,0,0,1,413.1809997558594,546.9299926757812)"><path fill="rgb(255,245,219)" fill-opacity="0.73" d=" M284.4739990234375,-350.864990234375 C284.4739990234375,-350.864990234375 284.4739990234375,-479.6260070800781 284.4739990234375,-479.6260070800781 C284.4739990234375,-479.6260070800781 282.1610107421875,-479.6260070800781 282.1610107421875,-479.6260070800781 C282.1610107421875,-479.6260070800781 282.1610107421875,-479.8210144042969 282.1610107421875,-479.8210144042969 C282.1610107421875,-479.8210144042969 317.9159851074219,-479.8210144042969 317.9159851074219,-479.8210144042969 C326.9049987792969,-479.8210144042969 334.2229919433594,-487.1400146484375 334.2229919433594,-496.13299560546875 C334.2229919433594,-496.13299560546875 334.2229919433594,-530.6190185546875 334.2229919433594,-530.6190185546875 C334.2229919433594,-539.6069946289062 326.9049987792969,-546.9310302734375 317.9159851074219,-546.9310302734375 C317.9159851074219,-546.9310302734375 -322.3479919433594,-546.9310302734375 -322.3479919433594,-546.9310302734375 C-331.33599853515625,-546.9310302734375 -338.6549987792969,-539.6069946289062 -338.6549987792969,-530.6190185546875 C-338.6549987792969,-530.6190185546875 -338.6549987792969,-496.13299560546875 -338.6549987792969,-496.13299560546875 C-338.6549987792969,-487.1400146484375 -331.33599853515625,-479.8210144042969 -322.3479919433594,-479.8210144042969 C-322.3479919433594,-479.8210144042969 -286.27099609375,-479.8210144042969 -286.27099609375,-479.8210144042969 C-286.27099609375,-479.8210144042969 -286.27099609375,-479.6260070800781 -286.27099609375,-479.6260070800781 C-286.27099609375,-479.6260070800781 -288.77398681640625,-479.6260070800781 -288.77398681640625,-479.6260070800781 C-288.77398681640625,-479.6260070800781 -288.77398681640625,-350.4159851074219 -288.77398681640625,-350.4159851074219 C-288.77398681640625,-350.4159851074219 -287.81201171875,-350.4159851074219 -287.81201171875,-350.4159851074219 C-358.6159973144531,-340.9750061035156 -413.1820068359375,-280.4179992675781 -413.1820068359375,-207.01300048828125 C-413.1820068359375,-207.01300048828125 -413.1820068359375,402.239013671875 -413.1820068359375,402.239013671875 C-413.1820068359375,482.13299560546875 -348.40899658203125,546.9299926757812 -268.5539855957031,546.9299926757812 C-268.5539855957031,546.9299926757812 268.5530090332031,546.9299926757812 268.5530090332031,546.9299926757812 C348.4119873046875,546.9299926757812 413.1809997558594,482.13299560546875 413.1809997558594,402.239013671875 C413.1809997558594,402.239013671875 413.1809997558594,-207.01300048828125 413.1809997558594,-207.01300048828125 C413.1809997558594,-281.5740051269531 356.88299560546875,-342.9020080566406 284.4739990234375,-350.864990234375z"></path></g><g opacity="1" transform="matrix(1,0,0,1,102.6989974975586,640.0780029296875)"><path fill="rgb(255,255,255)" fill-opacity="1" d=" M54.93199920654297,-406.01800537109375 C54.93199920654297,-406.01800537109375 -49.08000183105469,-385.4469909667969 -53.130001068115234,-303.093994140625 C-57.185001373291016,-220.74600219726562 -53.130001068115234,348.01800537109375 -53.130001068115234,348.01800537109375 C-53.130001068115234,348.01800537109375 -59.27799987792969,392.9419860839844 32.04800033569336,406.01800537109375 C32.04800033569336,406.01800537109375 -32.2760009765625,-82.31900024414062 -15.67199993133545,-224.52699279785156 C0.9330000281333923,-366.7349853515625 54.93199920654297,-406.01800537109375 54.93199920654297,-406.01800537109375z"></path></g></g></g><g clip-path="url(#__lottie_element_142)" transform="matrix(1,0,0,1,0,160)" opacity="1" style="display: none;"><g transform="matrix(1,0,0,1,61.647003173828125,1159.08203125)" opacity="1" style="display: block;"><g opacity="1" transform="matrix(1,0,0,1,412.83099365234375,357.2619934082031)"><path fill="rgb(255,199,61)" fill-opacity="1" d=" M0.0010000000474974513,247.23300170898438 C0.0010000000474974513,247.23300170898438 320.37200927734375,247.23300170898438 320.37200927734375,247.23300170898438 C380.9580078125,247.23300170898438 412.58099365234375,175.0290069580078 371.50201416015625,130.3489990234375 C371.50201416015625,130.3489990234375 239.68699645996094,-12.873000144958496 239.68699645996094,-12.873000144958496 C239.68699645996094,-12.873000144958496 51.130001068115234,-217.3459930419922 51.130001068115234,-217.3459930419922 C23.643999099731445,-247.23300170898438 -23.64299964904785,-247.23300170898438 -51.12799835205078,-217.3459930419922 C-51.12799835205078,-217.3459930419922 -239.68600463867188,-12.873000144958496 -239.68600463867188,-12.873000144958496 C-239.68600463867188,-12.873000144958496 -371.5,130.3489990234375 -371.5,130.3489990234375 C-412.58099365234375,175.0290069580078 -380.9570007324219,247.23300170898438 -320.3710021972656,247.23300170898438 C-320.3710021972656,247.23300170898438 0.0010000000474974513,247.23300170898438 0.0010000000474974513,247.23300170898438z"></path></g><g opacity="1" transform="matrix(1,0,0,1,410.1700134277344,85.76699829101562)"><path fill="rgb(255,199,61)" fill-opacity="1" d=" M0.0010000000474974513,-65.98600006103516 C0.0010000000474974513,-65.98600006103516 138.906005859375,-85.51699829101562 138.906005859375,-85.51699829101562 C138.906005859375,-85.51699829101562 80.09400177001953,0.0020000000949949026 80.09400177001953,0.0020000000949949026 C80.09400177001953,0.0020000000949949026 21.280000686645508,85.51699829101562 21.280000686645508,85.51699829101562 C21.280000686645508,85.51699829101562 -58.8120002746582,19.530000686645508 -58.8120002746582,19.530000686645508 C-58.8120002746582,19.530000686645508 -138.906005859375,-46.75199890136719 -138.906005859375,-46.75199890136719 C-138.906005859375,-46.75199890136719 0.0010000000474974513,-65.98600006103516 0.0010000000474974513,-65.98600006103516z"></path></g><g opacity="1" transform="matrix(1,0,0,1,413.1260070800781,128.38299560546875)"><path fill="rgb(95,54,168)" fill-opacity="1" d=" M57.33599853515625,-18.641000747680664 C57.33599853515625,-18.641000747680664 -57.334999084472656,-18.641000747680664 -57.334999084472656,-18.641000747680664 C-57.334999084472656,-18.641000747680664 -57.334999084472656,18.641000747680664 -57.334999084472656,18.641000747680664 C-57.334999084472656,18.641000747680664 57.33599853515625,18.641000747680664 57.33599853515625,18.641000747680664 C57.33599853515625,18.641000747680664 57.33599853515625,-18.641000747680664 57.33599853515625,-18.641000747680664z"></path></g><g opacity="1" transform="matrix(1,0,0,1,412.9800109863281,449.5840148925781)"><path fill="rgb(95,54,168)" fill-opacity="1" d=" M27.042999267578125,-54.00199890136719 C27.042999267578125,-54.00199890136719 45.36600112915039,-54.00199890136719 45.36600112915039,-54.00199890136719 C45.36600112915039,-54.00199890136719 45.36600112915039,54.00199890136719 45.36600112915039,54.00199890136719 C45.36600112915039,54.00199890136719 30.884000778198242,54.00199890136719 30.884000778198242,54.00199890136719 C30.884000778198242,54.00199890136719 -27.336999893188477,-21.749000549316406 -27.336999893188477,-21.749000549316406 C-27.336999893188477,-21.749000549316406 -27.336999893188477,54.00199890136719 -27.336999893188477,54.00199890136719 C-27.336999893188477,54.00199890136719 -45.36600112915039,54.00199890136719 -45.36600112915039,54.00199890136719 C-45.36600112915039,54.00199890136719 -45.36600112915039,-54.00199890136719 -45.36600112915039,-54.00199890136719 C-45.36600112915039,-54.00199890136719 -30.884000778198242,-54.00199890136719 -30.884000778198242,-54.00199890136719 C-30.884000778198242,-54.00199890136719 27.042999267578125,21.45199966430664 27.042999267578125,21.45199966430664 C27.042999267578125,21.45199966430664 27.042999267578125,-54.00199890136719 27.042999267578125,-54.00199890136719z"></path></g><g opacity="1" transform="matrix(1,0,0,1,412.8320007324219,429.4670104980469)"><path fill="rgb(95,54,168)" fill-opacity="1" d=" M63.24599838256836,-7.546000003814697 C63.24599838256836,-7.546000003814697 -63.24599838256836,-7.546000003814697 -63.24599838256836,-7.546000003814697 C-63.24599838256836,-7.546000003814697 -63.24599838256836,7.546000003814697 -63.24599838256836,7.546000003814697 C-63.24599838256836,7.546000003814697 63.24599838256836,7.546000003814697 63.24599838256836,7.546000003814697 C63.24599838256836,7.546000003814697 63.24599838256836,-7.546000003814697 63.24599838256836,-7.546000003814697z"></path></g><g opacity="1" transform="matrix(1,0,0,1,412.8320007324219,470.0039978027344)"><path fill="rgb(95,54,168)" fill-opacity="1" d=" M63.24599838256836,-7.546000003814697 C63.24599838256836,-7.546000003814697 -63.24599838256836,-7.546000003814697 -63.24599838256836,-7.546000003814697 C-63.24599838256836,-7.546000003814697 -63.24599838256836,7.546000003814697 -63.24599838256836,7.546000003814697 C-63.24599838256836,7.546000003814697 63.24599838256836,7.546000003814697 63.24599838256836,7.546000003814697 C63.24599838256836,7.546000003814697 63.24599838256836,-7.546000003814697 63.24599838256836,-7.546000003814697z"></path></g></g><g transform="matrix(1,0,0,1,447.3330078125,1281.01708984375)" opacity="1" style="display: block;"><g opacity="1" transform="matrix(1,0,0,1,13.548999786376953,53.207000732421875)"><path fill="rgb(95,54,168)" fill-opacity="1" d=" M13.298999786376953,-52.957000732421875 C13.298999786376953,-52.957000732421875 -13.298999786376953,-52.957000732421875 -13.298999786376953,-52.957000732421875 C-13.298999786376953,-52.957000732421875 -13.298999786376953,52.957000732421875 -13.298999786376953,52.957000732421875 C-13.298999786376953,52.957000732421875 13.298999786376953,52.957000732421875 13.298999786376953,52.957000732421875 C13.298999786376953,52.957000732421875 13.298999786376953,-52.957000732421875 13.298999786376953,-52.957000732421875z"></path></g></g></g></g></svg>