<svg width="25" height="24" viewBox="0 0 25 24" fill="none" xmlns="http://www.w3.org/2000/svg"><path d="M22.1085 1.19966C22.2437 1.20294 22.3761 1.23882 22.4944 1.30427C22.6128 1.36971 22.7136 1.46277 22.7882 1.57553C22.8573 1.68562 22.8985 1.81088 22.9083 1.94047C22.918 2.07007 22.896 2.20008 22.8442 2.31927L14.3432 22.3124C14.2927 22.4652 14.1973 22.5992 14.0695 22.6969C13.9417 22.7946 13.7874 22.8515 13.6267 22.8602C13.466 22.8688 13.3065 22.8288 13.169 22.7453C13.0314 22.6619 12.9222 22.5389 12.8557 22.3924L9.20092 15.9946C8.93059 15.5041 8.53625 15.0932 8.05731 14.803L1.65951 11.1562C1.52989 11.0836 1.42306 10.9763 1.35102 10.8463C1.27898 10.7164 1.24457 10.5689 1.25165 10.4205C1.26006 10.2695 1.31111 10.124 1.39887 10.0008C1.48663 9.8777 1.60751 9.78196 1.74748 9.72473L21.7806 1.27163C21.8836 1.22471 21.9953 1.20018 22.1085 1.19966ZM22.1085 6.806e-05C21.8329 -0.00225736 21.5601 0.0550326 21.3088 0.16801L1.22766 8.62111C0.882874 8.76536 0.585427 9.00336 0.369069 9.30811C0.152711 9.61286 0.0261057 9.97216 0.00362176 10.3452C-0.0188622 10.7183 0.0636748 11.0902 0.241866 11.4187C0.420058 11.7473 0.686768 12.0193 1.01173 12.2039L7.40953 15.8426C7.72171 16.0229 7.98096 16.2822 8.16128 16.5944L11.816 22.9922C12.0031 23.3163 12.2768 23.582 12.6064 23.7594C12.936 23.9367 13.3085 24.0188 13.6821 23.9964C14.0558 23.974 14.4158 23.8479 14.7218 23.6324C15.0278 23.4169 15.2678 23.1205 15.4148 22.7762L23.9159 2.78311C24.0424 2.48142 24.0932 2.15339 24.064 1.82756C24.0348 1.50173 23.9263 1.18798 23.7482 0.913621C23.57 0.639262 23.3275 0.412608 23.0417 0.253387C22.7559 0.0941658 22.4355 0.0072031 22.1085 6.806e-05Z" fill="#979797"></path><path d="M10.7604 13.8833C10.6815 13.8841 10.6033 13.8689 10.5305 13.8387C10.4576 13.8085 10.3916 13.7638 10.3365 13.7073C10.2242 13.5949 10.1611 13.4424 10.1611 13.2835C10.1611 13.1245 10.2242 12.9721 10.3365 12.8596L16.9263 6.30188C17.0387 6.18955 17.1912 6.12646 17.3501 6.12646C17.5091 6.12646 17.6615 6.18955 17.774 6.30188C17.8306 6.35701 17.8755 6.42292 17.9063 6.49572C17.937 6.56852 17.9528 6.64672 17.9528 6.72573C17.9528 6.80474 17.937 6.88295 17.9063 6.95574C17.8755 7.02854 17.8306 7.09445 17.774 7.14959L11.1843 13.7073C11.1289 13.7634 11.0629 13.8078 10.9901 13.8381C10.9173 13.8683 10.8392 13.8836 10.7604 13.8833Z" fill="#979797"></path></svg>