<svg width="31" height="30" viewBox="0 0 31 30" fill="none" xmlns="http://www.w3.org/2000/svg"><g clip-path="url(#clip0)"><path d="M15.1016 0C6.85742 0 0.101562 6.75586 0.101562 15C0.101562 17.6719 0.822207 20.3672 2.21094 22.67L0.154355 28.8399C0.0487695 29.1563 0.119141 29.5078 0.365293 29.7363C0.593809 29.9824 0.945312 30.0528 1.26166 29.9472L7.43158 27.8906C9.73432 29.2794 12.4296 30 15.1016 30C23.3457 30 30.1016 23.2441 30.1016 15C30.1016 6.75586 23.3457 0 15.1016 0Z" fill="#78ECBE"></path><path d="M30.1016 15C30.1016 23.2441 23.3457 30 15.1016 30V0C23.3457 0 30.1016 6.75586 30.1016 15Z" fill="#48D38A"></path><path d="M15.1002 19.3633C14.111 19.3633 13.3125 20.1618 13.3125 21.151C13.3125 22.1403 14.111 22.9387 15.1002 22.9387C16.0895 22.9387 16.888 22.1403 16.888 21.151C16.888 20.1618 16.0895 19.3633 15.1002 19.3633Z" fill="#8369A0"></path><path d="M15.0989 8H15.0393C13.1086 8 11.5234 9.58516 11.5234 11.5159C11.5234 12.1833 12.0598 12.7077 12.7153 12.7077C13.3708 12.7077 13.9071 12.1833 13.9071 11.5159C13.9071 10.8961 14.4196 10.3836 15.0393 10.3836H15.0989C15.7663 10.4194 16.2907 10.9676 16.2907 11.6351C16.2907 12.0284 16.2311 12.3383 15.9213 12.6362L15.0989 13.4705L14.6103 13.9591C14.1574 14.412 13.9071 15.0079 13.9071 15.6395V16.9784C13.9071 17.6339 14.4434 18.1702 15.0989 18.1702C15.7544 18.1702 16.2907 17.6339 16.2907 16.9784V15.6395L17.6136 14.3286C18.3049 13.6254 18.6744 12.7554 18.6744 11.6351C18.6744 9.65663 17.0773 8.03579 15.0989 8Z" fill="#8369A0"></path><path d="M16.8893 21.151C16.8893 22.1403 16.0908 22.9387 15.1016 22.9387V19.3633C16.0908 19.3633 16.8893 20.1618 16.8893 21.151Z" fill="#40196D"></path><path d="M18.677 11.6351C18.677 12.7554 18.3076 13.6254 17.6163 14.3286L16.2934 15.6395V16.9784C16.2934 17.6339 15.7571 18.1702 15.1016 18.1702V13.4705L15.9239 12.6362C16.2338 12.3383 16.2934 12.0284 16.2934 11.6351C16.2934 10.9676 15.769 10.4194 15.1016 10.3836V8C17.0799 8.03579 18.677 9.65663 18.677 11.6351Z" fill="#40196D"></path></g><defs><clipPath id="clip0"><rect width="30" height="30" fill="white" transform="translate(0.101562)"></rect></clipPath></defs></svg>