<svg width="48" height="51" viewBox="0 0 48 51" fill="none" xmlns="http://www.w3.org/2000/svg">
<g clip-path="url(#clip0_ZENITHLOGOClip)">
<path fill-rule="evenodd" clip-rule="evenodd" d="M5.48356 14.3814L5.56573 14.0514L5.6479 13.6388L9.26329 0.602539L47.7178 0.685047L5.23706 35.421L24.6287 11.9062H10.085L9.26329 11.9887C7.53776 12.0712 5.97657 13.1438 5.48356 14.3814Z" fill="#808285"/>
<path fill-rule="evenodd" clip-rule="evenodd" d="M45.6638 24.4475C45.6638 24.2825 44.4313 31.7907 42.3771 39.5465L2.19702 39.794L45.5816 4.56299L26.1079 28.2429H40.7337L41.5554 28.1603C43.2809 28.0778 45.0886 25.6851 45.6638 24.4475Z" fill="#ED1C24"/>
<path fill-rule="evenodd" clip-rule="evenodd" d="M7.5377 50.6024H0.717773L5.40134 44.1667H2.27896L2.52547 42.3516H9.01672L4.33316 48.7872H7.78421L7.5377 50.6024ZM8.85239 50.6024L9.92057 42.3516H14.6041L14.3576 44.1667H11.7283L11.5639 45.5694H14.029L13.8646 47.3846H11.3174L11.1531 48.7872H13.7825L13.536 50.6024H8.85239ZM14.9328 50.6024L16.001 42.3516H18.0552L20.438 46.642L20.6024 47.137L20.9311 48.0446C20.9359 47.5211 20.9633 46.9981 21.0132 46.477L21.5062 42.3516H23.5604L22.4922 50.6024H20.5202L18.1374 46.3945L17.8908 45.8169L17.5622 44.9093C17.558 45.4603 17.5305 46.0108 17.48 46.5595L16.987 50.6024H14.9328ZM24.2178 50.6024L25.286 42.3516H27.4223L26.3541 50.6024H24.2178ZM29.1478 50.6024L29.9695 44.3318H28.244L28.4905 42.3516H34.0779L33.8314 44.3318H32.1059L31.2842 50.6024H29.1478ZM33.9957 50.6024L35.0639 42.3516H37.2003L36.7894 45.5694H39.5832L39.994 42.3516H42.1304L41.0622 50.6024H38.9258L39.3366 47.2195H36.5429L36.1321 50.6024H33.9957Z" fill="#808285"/>
</g>
<defs>
<clipPath id="clip0_ZENITHLOGOClip">
<rect x="0.717773" y="0.602539" width="47" height="50" fill="white"/>
</clipPath>
</defs>
</svg>
